# xmcd
#
# Track frame offsets: 
#        150
#        15062
#        32364
#        48563
#        74653
#        91715
#        111333
#        126114
#        149204
#        170930
#        186714
#        204763
#        230828
#        256219
#        279915
#        306432
#        326020
#        343156
#
# Disc length: 4745 seconds
#
# Revision: 0
# Processed by: cddbd v1.5.2PL0 Copyright (c) Steve Scherf et al.
# Submitted via: ExactAudioCopy v1.3
#
DISCID=14128712
DTITLE=Various Artist - Akella Presents - vol.192 - Rockin' Blues  CD
DTITLE=1
DYEAR=2019
DGENRE=Blues
TTITLE0=Dreamerz and Co. - Everybody
TTITLE1=Doug Henthorn - Walk
TTITLE2=Clive Rogers - Still Got The Thrill
TTITLE3=Dave P.Moore - 420 Blues
TTITLE4=The Mike Eldred Trio - Hunder Dollar Bill
TTITLE5=Backbone Blues Band - Pray for Me
TTITLE6=Ted Tyson - Whats the World Comin To
TTITLE7=Rocky Jackson - Let's Buzz
TTITLE8=Miss Kaytie - Room Full of Mirrors
TTITLE9=Haranni Hurricanes - You Know
TTITLE10=The Chitlins - Down Here
TTITLE11=Keith Thompson Band - Like A Stranger
TTITLE12=Justusworx - High Class Woman
TTITLE13=Dov Hammer - Find a Way
TTITLE14=Mark Cameron - On Your Way to the Top
TTITLE15=Cradle Trio - Call Me A Freak
TTITLE16=Coco Montoya - Good Man Gone
TTITLE17=Blue Attitude - How Can You Talk
EXTD=
EXTT0=
EXTT1=
EXTT2=
EXTT3=
EXTT4=
EXTT5=
EXTT6=
EXTT7=
EXTT8=
EXTT9=
EXTT10=
EXTT11=
EXTT12=
EXTT13=
EXTT14=
EXTT15=
EXTT16=
EXTT17=
PLAYORDER=
